<svg width="25" height="25" viewBox="0 0 25 25" fill="none" xmlns="http://www.w3.org/2000/svg">
<g clip-path="url(#clip0_0_505)">
<path d="M23.0721 0.159912H2.61542C2.14554 0.159912 1.69491 0.34657 1.36266 0.678822C1.03041 1.01107 0.84375 1.4617 0.84375 1.93158V22.3882C0.84375 22.8581 1.03041 23.3088 1.36266 23.641C1.69491 23.9733 2.14554 24.1599 2.61542 24.1599H23.0721C23.542 24.1599 23.9926 23.9733 24.3248 23.641C24.6571 23.3088 24.8438 22.8581 24.8438 22.3882V1.93158C24.8438 1.4617 24.6571 1.01107 24.3248 0.678822C23.9926 0.34657 23.542 0.159912 23.0721 0.159912ZM7.99708 20.6049H4.38875V9.14325H7.99708V20.6049ZM6.19042 7.55491C5.78111 7.55261 5.38167 7.42911 5.04248 7.2C4.7033 6.97089 4.43959 6.64644 4.28463 6.2676C4.12966 5.88876 4.0904 5.4725 4.17178 5.07137C4.25316 4.67023 4.45155 4.30219 4.74191 4.01369C5.03226 3.7252 5.40157 3.52918 5.80322 3.45037C6.20487 3.37157 6.62086 3.41351 6.9987 3.5709C7.37654 3.72829 7.69929 3.99408 7.92622 4.33472C8.15314 4.67537 8.27407 5.0756 8.27375 5.48491C8.27761 5.75895 8.22626 6.03095 8.12276 6.28472C8.01926 6.53848 7.86573 6.76881 7.67132 6.96198C7.47691 7.15515 7.2456 7.30719 6.99117 7.40906C6.73675 7.51093 6.46442 7.56053 6.19042 7.55491ZM21.2971 20.6149H17.6904V14.3532C17.6904 12.5066 16.9054 11.9366 15.8921 11.9366C14.8221 11.9366 13.7721 12.7432 13.7721 14.3999V20.6149H10.1637V9.15158H13.6338V10.7399H13.6804C14.0288 10.0349 15.2488 8.82991 17.1104 8.82991C19.1238 8.82991 21.2987 10.0249 21.2987 13.5249L21.2971 20.6149Z" fill="#0A66C2"/>
</g>
<defs>
<clipPath id="clip0_0_505">
<rect width="24" height="24" fill="white" transform="translate(0.84375 0.159912)"/>
</clipPath>
</defs>
</svg>
