<svg width="25" height="24" viewBox="0 0 25 24" fill="none" xmlns="http://www.w3.org/2000/svg">
<path d="M12.9836 11.6198C12.9536 11.6198 12.9336 11.6198 12.9036 11.6198C12.8536 11.6098 12.7836 11.6098 12.7236 11.6198C9.82361 11.5298 7.63361 9.24976 7.63361 6.43976C7.63361 3.57976 9.96361 1.24976 12.8236 1.24976C15.6836 1.24976 18.0136 3.57976 18.0136 6.43976C18.0036 9.24976 15.8036 11.5298 13.0136 11.6198C13.0036 11.6198 12.9936 11.6198 12.9836 11.6198ZM12.8236 2.74976C10.7936 2.74976 9.13361 4.40976 9.13361 6.43976C9.13361 8.43976 10.6936 10.0498 12.6836 10.1198C12.7336 10.1098 12.8736 10.1098 13.0036 10.1198C14.9636 10.0298 16.5036 8.41976 16.5136 6.43976C16.5136 4.40976 14.8536 2.74976 12.8236 2.74976Z" fill="#292D32"/>
<path d="M12.9936 22.5498C11.0336 22.5498 9.06358 22.0498 7.57358 21.0498C6.18358 20.1298 5.42358 18.8698 5.42358 17.4998C5.42358 16.1298 6.18358 14.8598 7.57358 13.9298C10.5736 11.9398 15.4336 11.9398 18.4136 13.9298C19.7936 14.8498 20.5636 16.1098 20.5636 17.4798C20.5636 18.8498 19.8036 20.1198 18.4136 21.0498C16.9136 22.0498 14.9536 22.5498 12.9936 22.5498ZM8.40358 15.1898C7.44358 15.8298 6.92358 16.6498 6.92358 17.5098C6.92358 18.3598 7.45358 19.1798 8.40358 19.8098C10.8936 21.4798 15.0936 21.4798 17.5836 19.8098C18.5436 19.1698 19.0636 18.3498 19.0636 17.4898C19.0636 16.6398 18.5336 15.8198 17.5836 15.1898C15.0936 13.5298 10.8936 13.5298 8.40358 15.1898Z" fill="#292D32"/>
</svg>
