<svg width="42" height="42" viewBox="0 0 42 42" fill="none" xmlns="http://www.w3.org/2000/svg">
<path d="M29.75 37.1875H12.25C5.8625 37.1875 2.1875 33.5125 2.1875 27.125V14.875C2.1875 8.4875 5.8625 4.8125 12.25 4.8125H29.75C36.1375 4.8125 39.8125 8.4875 39.8125 14.875V27.125C39.8125 33.5125 36.1375 37.1875 29.75 37.1875ZM12.25 7.4375C7.245 7.4375 4.8125 9.87 4.8125 14.875V27.125C4.8125 32.13 7.245 34.5625 12.25 34.5625H29.75C34.755 34.5625 37.1875 32.13 37.1875 27.125V14.875C37.1875 9.87 34.755 7.4375 29.75 7.4375H12.25Z" fill="#4472AB"/>
<path d="M20.9996 22.5224C19.5296 22.5224 18.0421 22.0674 16.9046 21.1399L11.4271 16.765C10.8671 16.31 10.7621 15.4874 11.2171 14.9274C11.6721 14.3674 12.4946 14.2625 13.0546 14.7175L18.5321 19.0925C19.8621 20.16 22.1196 20.16 23.4496 19.0925L28.9271 14.7175C29.4871 14.2625 30.3271 14.3499 30.7646 14.9274C31.2196 15.4874 31.1321 16.3275 30.5546 16.765L25.0771 21.1399C23.9571 22.0674 22.4696 22.5224 20.9996 22.5224Z" fill="#4472AB"/>
</svg>
