<svg width="24" height="24" viewBox="0 0 24 24" fill="none" xmlns="http://www.w3.org/2000/svg">
<path d="M16.9997 21.25H6.99969C3.34969 21.25 1.24969 19.15 1.24969 15.5V8.5C1.24969 4.85 3.34969 2.75 6.99969 2.75H16.9997C20.6497 2.75 22.7497 4.85 22.7497 8.5V15.5C22.7497 19.15 20.6497 21.25 16.9997 21.25ZM6.99969 4.25C4.13969 4.25 2.74969 5.64 2.74969 8.5V15.5C2.74969 18.36 4.13969 19.75 6.99969 19.75H16.9997C19.8597 19.75 21.2497 18.36 21.2497 15.5V8.5C21.2497 5.64 19.8597 4.25 16.9997 4.25H6.99969Z" fill="#292D32"/>
<path d="M11.9995 12.87C11.1595 12.87 10.3095 12.61 9.65948 12.08L6.52947 9.57997C6.20947 9.31997 6.14948 8.84997 6.40948 8.52997C6.66948 8.20997 7.13948 8.14997 7.45948 8.40997L10.5895 10.91C11.3495 11.52 12.6395 11.52 13.3995 10.91L16.5295 8.40997C16.8495 8.14997 17.3295 8.19997 17.5795 8.52997C17.8395 8.84997 17.7895 9.32997 17.4595 9.57997L14.3295 12.08C13.6895 12.61 12.8395 12.87 11.9995 12.87Z" fill="#292D32"/>
</svg>
