<svg width="42" height="42" viewBox="0 0 42 42" fill="none" xmlns="http://www.w3.org/2000/svg">
<path d="M17.4825 39.865C16.4325 39.865 15.435 39.34 14.7525 38.4125L12.6525 35.6125C12.6525 35.63 12.565 35.5775 12.53 35.5775H11.8825C5.89751 35.5775 2.1875 33.95 2.1875 25.8825V18.8825C2.1875 11.515 6.68502 9.59001 10.465 9.25751C10.885 9.20501 11.375 9.1875 11.8825 9.1875H23.0825C29.4175 9.1875 32.7775 12.5475 32.7775 18.8825V25.8825C32.7775 26.39 32.76 26.88 32.69 27.3525C32.375 31.08 30.45 35.5775 23.0825 35.5775H22.3825L20.2125 38.4125C19.53 39.34 18.5325 39.865 17.4825 39.865ZM11.8825 11.8125C11.48 11.8125 11.095 11.83 10.7275 11.865C6.66751 12.215 4.8125 14.4375 4.8125 18.8825V25.8825C4.8125 31.885 6.66751 32.9525 11.8825 32.9525H12.5825C13.37 32.9525 14.2625 33.39 14.7525 34.02L16.8525 36.8375C17.2375 37.3625 17.7275 37.3625 18.1125 36.8375L20.2125 34.0375C20.72 33.355 21.525 32.9525 22.3825 32.9525H23.0825C27.5275 32.9525 29.75 31.08 30.0825 27.09C30.135 26.67 30.1525 26.285 30.1525 25.8825V18.8825C30.1525 14 27.965 11.8125 23.0825 11.8125H11.8825Z" fill="#4472AB"/>
<path d="M17.4829 24.8325C16.5029 24.8325 15.7329 24.045 15.7329 23.0825C15.7329 22.12 16.5204 21.3325 17.4829 21.3325C18.4454 21.3325 19.2329 22.12 19.2329 23.0825C19.2329 24.045 18.4629 24.8325 17.4829 24.8325Z" fill="#4472AB"/>
<path d="M23.0824 24.8325C22.1024 24.8325 21.3324 24.045 21.3324 23.0825C21.3324 22.12 22.1199 21.3325 23.0824 21.3325C24.0449 21.3325 24.8324 22.12 24.8324 23.0825C24.8324 24.045 24.0449 24.8325 23.0824 24.8325Z" fill="#4472AB"/>
<path d="M11.8997 24.8325C10.9197 24.8325 10.1497 24.045 10.1497 23.0825C10.1497 22.12 10.9372 21.3325 11.8997 21.3325C12.8622 21.3325 13.6497 22.12 13.6497 23.0825C13.6497 24.045 12.8622 24.8325 11.8997 24.8325Z" fill="#4472AB"/>
<path d="M31.3952 28.5075C31.0452 28.5075 30.6952 28.3675 30.4502 28.105C30.1702 27.825 30.0478 27.4225 30.1003 27.0375C30.1528 26.67 30.1702 26.285 30.1702 25.8825V18.8825C30.1702 14 27.9828 11.8125 23.1003 11.8125H11.9002C11.4977 11.8125 11.1128 11.83 10.7453 11.865C10.3603 11.9175 9.95773 11.7775 9.67773 11.515C9.39773 11.235 9.24021 10.85 9.27521 10.465C9.59021 6.68502 11.5327 2.1875 18.9002 2.1875H30.1003C36.4353 2.1875 39.7952 5.54752 39.7952 11.8825V18.8825C39.7952 26.25 35.2978 28.175 31.5177 28.5075C31.4653 28.5075 31.4302 28.5075 31.3952 28.5075ZM12.1103 9.1875H23.0827C29.4177 9.1875 32.7778 12.5475 32.7778 18.8825V25.655C35.7528 24.92 37.1528 22.7325 37.1528 18.8825V11.8825C37.1528 7.00002 34.9652 4.8125 30.0827 4.8125H18.8827C15.0327 4.8125 12.8628 6.2125 12.1103 9.1875Z" fill="#4472AB"/>
</svg>
