<svg width="28" height="27" viewBox="0 0 28 27" fill="none" xmlns="http://www.w3.org/2000/svg">
<path d="M12.2864 1.84744C13.0637 0.555805 14.9363 0.555802 15.7136 1.84744L18.8297 7.02523C19.1089 7.48925 19.5644 7.82019 20.092 7.94238L25.9793 9.30589C27.4479 9.64603 28.0266 11.427 27.0384 12.5654L23.0769 17.1289C22.7219 17.5379 22.5479 18.0734 22.5947 18.6129L23.1172 24.6334C23.2476 26.1353 21.7326 27.2359 20.3445 26.6479L14.7802 24.2905C14.2815 24.0793 13.7185 24.0793 13.2198 24.2905L7.65547 26.6479C6.2674 27.2359 4.75243 26.1353 4.88278 24.6334L5.40527 18.6129C5.4521 18.0734 5.27812 17.5379 4.9231 17.1289L0.961639 12.5654C-0.0265779 11.427 0.552083 9.64603 2.02071 9.30589L7.90799 7.94238C8.43559 7.82019 8.89109 7.48925 9.17035 7.02523L12.2864 1.84744Z" fill="#FFCC00"/>
</svg>
